<?xml version="1.0" standalone="no"?>
<!DOCTYPE svg PUBLIC "-//W3C//DTD SVG 20010904//EN"
 "http://www.w3.org/TR/2001/REC-SVG-20010904/DTD/svg10.dtd">
<svg version="1.0" xmlns="http://www.w3.org/2000/svg"
 width="500.000000pt" height="500.000000pt" viewBox="0 0 500.000000 500.000000"
 preserveAspectRatio="xMidYMid meet">

<g transform="translate(0.000000,500.000000) scale(0.100000,-0.100000)"
fill="#000000" stroke="none">
<path d="M2057 3161 c74 -9 80 -20 18 -34 -11 -3 4 -5 33 -6 45 -1 53 2 50 16
-4 21 -38 31 -103 31 l-50 -1 52 -6z"/>
<path d="M2140 3109 c-23 -8 -22 -8 8 -5 41 3 43 -20 2 -29 -23 -5 -30 -12
-30 -31 0 -13 -4 -24 -10 -24 -5 0 -19 -9 -30 -20 -19 -19 -20 -33 -20 -339
l0 -320 26 -20 c41 -32 98 -28 135 8 l29 29 0 301 0 301 -35 39 c-37 40 -40
48 -27 68 6 10 29 7 97 -11 159 -43 284 -111 286 -155 0 -11 2 -12 6 -3 8 21
-25 60 -80 93 -61 36 -24 29 46 -9 51 -28 87 -68 87 -99 0 -44 -66 -94 -122
-92 -22 1 -22 1 4 12 37 17 68 47 68 66 -1 10 -6 6 -15 -11 -18 -32 -55 -44
-151 -51 -126 -10 -178 -53 -138 -116 11 -16 95 -110 189 -209 l170 -181 19
22 c10 12 35 38 53 58 l35 37 -114 71 c-298 189 -318 203 -318 231 0 31 27 41
127 49 143 11 203 46 203 118 -1 62 -100 126 -285 186 -127 40 -180 49 -215
36z m-24 -144 c-11 -34 -26 -47 -26 -22 0 11 27 57 34 57 2 0 -2 -16 -8 -35z
m4 -185 c0 -5 -7 -7 -15 -4 -11 4 -15 0 -15 -16 0 -16 4 -20 15 -16 17 6 21
-9 5 -19 -15 -9 -40 14 -40 36 0 10 8 22 17 28 19 10 33 6 33 -9z m45 10 c5
-8 11 -7 21 1 12 10 18 9 32 -5 16 -17 16 -18 -5 -11 -19 5 -23 2 -23 -14 0
-23 4 -25 29 -12 13 7 17 5 17 -8 0 -14 -7 -17 -34 -15 -18 1 -39 7 -47 14
-10 8 -14 8 -18 -2 -3 -7 -6 4 -6 25 -1 36 19 52 34 27z m-74 -93 c-13 -16 -5
-28 15 -20 8 3 14 0 14 -6 0 -6 -7 -11 -15 -11 -8 0 -15 -7 -15 -15 0 -24 30
-17 40 10 9 24 50 37 50 15 0 -5 11 -10 24 -10 25 0 44 -28 23 -35 -6 -2 -43
-3 -82 -2 l-70 2 -1 30 c-1 37 5 55 18 55 7 0 6 -5 -1 -13z m126 -1 c3 -3 -19
-6 -51 -6 -31 0 -55 4 -52 9 6 9 93 8 103 -3z m397 -212 c16 -9 46 -28 67 -44
l38 -27 -29 -21 c-25 -19 -30 -19 -41 -6 -6 8 -14 12 -17 10 -3 -3 -18 4 -35
16 -29 21 -30 21 -23 2 9 -23 -62 49 -87 88 -9 14 -18 37 -21 51 -4 24 -3 24
57 -14 34 -21 75 -46 91 -55z"/>
<path d="M2171 2754 c0 -11 3 -14 6 -6 3 7 2 16 -1 19 -3 4 -6 -2 -5 -13z"/>
<path d="M2143 2648 c2 -7 10 -13 17 -13 7 0 15 6 18 13 2 7 -5 12 -18 12 -13
0 -20 -5 -17 -12z"/>
<path d="M2190 2642 c0 -4 10 -9 22 -9 18 -2 20 0 8 7 -18 12 -30 13 -30 2z"/>
<path d="M1590 3060 c-69 -12 -114 -34 -166 -82 -57 -52 -72 -85 -85 -188 -11
-92 2 -260 26 -330 20 -60 66 -107 133 -138 76 -35 215 -37 282 -4 91 44 160
148 160 239 l0 53 -42 -2 -43 -1 38 -4 c37 -4 38 -4 31 -41 -17 -102 -42 -153
-77 -158 -21 -3 -21 -6 3 41 14 27 20 57 19 95 l-1 55 -9 -59 c-11 -72 -35
-123 -72 -150 -23 -17 -44 -21 -102 -21 -65 0 -78 3 -116 30 -26 18 -53 50
-68 80 -25 47 -26 58 -26 200 0 162 8 202 53 269 33 48 74 66 147 66 111 0
156 -37 164 -137 6 -67 6 -67 41 -75 50 -10 70 -2 70 30 0 80 -60 166 -143
206 -58 27 -148 39 -217 26z m194 -37 c7 -8 11 -9 37 -12 5 0 7 -5 4 -11 -3
-5 0 -7 8 -4 22 8 74 -59 91 -119 9 -30 16 -58 16 -61 0 -3 -20 -6 -45 -6
l-45 0 0 55 c0 64 -16 102 -60 139 -18 14 -27 26 -22 26 5 0 12 -3 16 -7z"/>
<path d="M3044 3057 c-66 -17 -114 -48 -163 -103 -55 -62 -65 -113 -59 -305 3
-139 6 -159 28 -203 30 -58 99 -122 149 -136 20 -5 79 -10 132 -10 86 0 103 3
149 28 87 45 140 138 140 245 l0 47 -40 0 -40 0 0 -63 c0 -121 -63 -192 -168
-189 -86 2 -152 39 -188 104 -28 52 -29 57 -29 198 0 116 4 156 19 200 36 105
83 141 185 143 108 2 171 -58 171 -162 l0 -51 50 0 c47 0 50 2 50 25 0 92 -58
178 -147 217 -56 25 -171 32 -239 15z m278 -54 c38 -23 84 -97 93 -150 l7 -43
-41 0 -41 0 0 50 c0 56 -21 117 -44 126 -18 7 -30 34 -15 34 6 0 24 -8 41 -17z
m77 -402 c36 -23 -24 -195 -68 -197 -11 -1 -18 3 -15 8 3 4 8 6 12 4 8 -4 9 3
18 117 6 80 16 91 53 68z"/>
<path d="M1351 2114 c-12 -15 -21 -33 -21 -41 0 -18 20 -56 34 -65 32 -22 101
11 76 36 -8 8 -14 6 -21 -6 -25 -45 -73 9 -51 57 12 25 36 33 47 15 3 -5 13
-10 21 -10 12 0 12 4 4 20 -16 30 -64 26 -89 -6z"/>
<path d="M1999 2090 c-1 -27 -2 -57 -3 -67 0 -9 5 -18 12 -20 8 -3 12 6 12 26
0 39 13 39 42 1 12 -16 28 -30 35 -30 17 0 16 5 -3 36 -13 19 -14 28 -5 37 16
16 14 54 -5 61 -9 3 -31 6 -50 6 l-34 0 -1 -50z m69 7 c3 -12 -3 -17 -22 -17
-25 0 -35 18 -19 34 12 12 38 2 41 -17z"/>
<path d="M3356 2124 c-9 -9 -16 -32 -16 -54 0 -46 21 -70 59 -70 33 0 60 25
44 41 -7 7 -14 5 -23 -6 -17 -21 -37 -19 -50 6 -24 45 11 91 50 67 24 -15 37
-4 20 17 -16 20 -64 19 -84 -1z"/>
<path d="M1477 2103 c-4 -3 -7 -28 -7 -55 l0 -48 43 2 c36 1 38 2 10 5 -43 6
-47 40 -5 46 l27 4 -27 2 c-36 1 -39 31 -3 31 14 0 25 5 25 10 0 11 -53 14
-63 3z"/>
<path d="M1660 2100 c0 -5 7 -10 15 -10 11 0 15 -12 15 -45 0 -25 5 -45 10
-45 6 0 10 20 10 45 0 33 4 45 15 45 8 0 15 5 15 10 0 6 -18 10 -40 10 -22 0
-40 -4 -40 -10z"/>
<path d="M1757 2098 c-2 -7 -1 -33 3 -58 5 -30 8 -36 9 -17 1 34 11 34 41 2
27 -29 37 -27 18 4 -9 16 -10 23 -1 32 19 19 -3 49 -36 49 -16 0 -31 -6 -34
-12z m61 -25 c2 -8 -6 -13 -22 -13 -17 0 -26 5 -26 16 0 19 41 16 48 -3z"/>
<path d="M1858 2100 c-2 -6 -2 -31 0 -55 4 -45 4 -45 41 -44 35 1 36 1 6 8
-36 8 -39 33 -5 42 l25 6 -25 4 c-33 5 -32 23 3 27 15 2 27 8 27 13 0 12 -67
12 -72 -1z"/>
<path d="M2130 2055 l0 -55 38 2 37 1 -33 4 c-40 5 -41 33 -2 44 l25 7 -27 1
c-40 1 -38 31 2 31 17 0 30 5 30 10 0 6 -16 10 -35 10 l-35 0 0 -55z"/>
<path d="M2236 2094 c-19 -19 -21 -68 -3 -82 6 -5 26 -11 43 -14 31 -4 31 -4
33 44 1 38 -3 49 -18 58 -27 14 -37 13 -55 -6z m62 -36 c4 -37 -35 -60 -55
-32 -16 22 -17 36 -1 52 21 21 53 10 56 -20z"/>
<path d="M2402 2075 c-3 -49 -15 -70 -36 -62 -11 4 -16 19 -16 47 0 22 -4 40
-10 40 -14 0 -12 -74 2 -88 16 -16 57 -15 64 2 3 7 4 33 1 57 l-4 44 -1 -40z"/>
<path d="M2447 2060 c-26 -54 -27 -81 -3 -47 7 9 19 17 26 17 7 0 19 -8 26
-17 21 -30 25 -9 5 33 -10 21 -21 46 -23 54 -4 9 -15 -5 -31 -40z m33 0 c0 -5
-4 -10 -10 -10 -5 0 -10 5 -10 10 0 6 5 10 10 10 6 0 10 -4 10 -10z"/>
<path d="M2532 2058 l-2 -58 33 1 c29 1 30 2 7 8 -21 6 -26 14 -31 56 l-6 50
-1 -57z"/>
<path d="M2651 2053 c1 -40 3 -50 8 -33 4 14 17 27 31 31 25 7 25 7 -2 8 -36
1 -39 31 -3 31 14 0 25 5 25 10 0 6 -13 10 -30 10 -30 0 -30 0 -29 -57z"/>
<path d="M2787 2092 c-20 -22 -22 -63 -5 -80 17 -17 53 -15 68 3 8 9 9 15 2
15 -6 0 -14 -4 -17 -10 -11 -18 -35 -10 -47 15 -10 21 -9 29 5 43 15 14 21 15
38 4 18 -12 20 -11 17 5 -4 25 -40 28 -61 5z"/>
<path d="M2964 2095 c11 -8 23 -34 27 -57 l6 -43 2 48 c1 34 5 47 16 47 8 0
15 5 15 10 0 6 -19 10 -42 10 -40 -1 -42 -2 -24 -15z"/>
<path d="M3053 2055 c0 -33 2 -45 4 -27 2 18 2 45 0 60 -2 15 -4 0 -4 -33z"/>
<path d="M3097 2092 c-34 -37 -13 -92 33 -92 47 0 68 61 32 93 -24 22 -45 21
-65 -1z m58 -42 c0 -31 -3 -35 -25 -35 -19 0 -26 6 -28 23 -5 36 5 54 30 50
19 -2 23 -9 23 -38z"/>
<path d="M3197 2104 c-11 -11 -8 -104 3 -104 6 0 10 14 10 30 0 38 10 38 32 0
25 -44 38 -37 38 20 0 28 -4 50 -10 50 -5 0 -10 -15 -11 -32 0 -31 -1 -32 -14
-13 -35 49 -41 56 -48 49z"/>
<path d="M3486 2091 c-21 -23 -18 -70 5 -84 9 -5 28 -7 42 -3 34 8 45 47 23
81 -20 30 -46 32 -70 6z m60 -26 c11 -46 -35 -75 -56 -35 -8 14 -8 26 0 40 15
29 48 26 56 -5z"/>
<path d="M1560 2056 c0 -25 5 -48 10 -51 6 -4 10 7 10 24 0 39 10 39 32 1 25
-44 38 -37 38 20 0 55 -17 69 -22 18 l-3 -33 -20 33 c-28 46 -45 41 -45 -12z"/>
<path d="M2610 2050 c0 -27 5 -50 10 -50 6 0 10 23 10 50 0 28 -4 50 -10 50
-5 0 -10 -22 -10 -50z"/>
<path d="M2730 2050 c0 -27 5 -50 10 -50 6 0 10 23 10 50 0 28 -4 50 -10 50
-5 0 -10 -22 -10 -50z"/>
<path d="M2894 2083 c-4 -10 -13 -33 -20 -50 -8 -20 -9 -33 -3 -33 5 0 12 7
15 15 4 8 15 15 25 15 11 0 22 -7 25 -15 4 -8 10 -15 15 -15 13 0 -24 93 -38
97 -7 3 -16 -4 -19 -14z m21 -23 c3 -5 1 -10 -4 -10 -6 0 -11 5 -11 10 0 6 2
10 4 10 3 0 8 -4 11 -10z"/>
<path d="M3593 2083 c-21 -8 -15 -22 7 -16 11 3 20 1 20 -4 0 -6 -9 -18 -20
-28 -27 -25 -25 -35 8 -34 22 0 23 2 9 8 -17 6 -17 8 -3 20 30 25 14 66 -21
54z"/>
<path d="M1250 1935 c0 -9 7 -18 15 -22 23 -8 465 14 500 25 21 7 -50 11 -242
11 -239 1 -273 -1 -273 -14z"/>
<path d="M3250 1941 c0 -5 -10 -11 -22 -13 -31 -5 377 -21 422 -16 23 2 36 9
38 21 3 16 -12 17 -217 17 -130 0 -221 -4 -221 -9z"/>
</g>
</svg>
